<svg width="489" height="150" viewBox="0 0 489 150" fill="none" xmlns="http://www.w3.org/2000/svg">
<circle cx="75" cy="75" r="68" fill="#3B2C65" stroke="#4D51BD" stroke-width="14"/>
<path d="M50.7301 90V80.9872L82.5305 37.3935H50.7621V24.5455H102.538V33.5582L70.7372 77.152H102.506V90H50.7301Z" fill="#A5B0FF"/>
<path d="M50.7301 124V114.987L82.5305 71.3935H50.7621V58.5455H102.538V67.5582L70.7372 111.152H102.506V124H50.7301Z" fill="#4D51BD"/>
<path d="M171.73 107V97.9872L203.531 54.3935H171.762V41.5455H223.538V50.5582L191.737 94.152H223.506V107H171.73ZM233.214 107V57.9091H248.842V107H233.214ZM241.044 52.1882C238.849 52.1882 236.964 51.4638 235.387 50.0149C233.81 48.5447 233.022 46.7763 233.022 44.7095C233.022 42.6641 233.81 40.9169 235.387 39.468C236.964 37.9979 238.849 37.2628 241.044 37.2628C243.26 37.2628 245.145 37.9979 246.701 39.468C248.278 40.9169 249.066 42.6641 249.066 44.7095C249.066 46.7763 248.278 48.5447 246.701 50.0149C245.145 51.4638 243.26 52.1882 241.044 52.1882ZM258.79 125.409V57.9091H274.259V66.3146H274.738C275.377 64.8232 276.283 63.3849 277.455 62C278.648 60.6151 280.161 59.4858 281.993 58.6122C283.847 57.7173 286.062 57.2699 288.641 57.2699C292.05 57.2699 295.235 58.1648 298.197 59.9545C301.18 61.7443 303.587 64.5035 305.42 68.2322C307.252 71.9609 308.168 76.7124 308.168 82.4865C308.168 88.0476 307.284 92.7031 305.516 96.4531C303.768 100.203 301.403 103.016 298.42 104.891C295.459 106.766 292.167 107.703 288.545 107.703C286.073 107.703 283.932 107.298 282.121 106.489C280.31 105.679 278.786 104.614 277.55 103.293C276.336 101.972 275.398 100.555 274.738 99.0419H274.418V125.409H258.79ZM274.099 82.4545C274.099 85.0966 274.45 87.3977 275.153 89.358C275.878 91.3182 276.911 92.8416 278.254 93.9283C279.617 94.9936 281.247 95.5263 283.143 95.5263C285.061 95.5263 286.691 94.9936 288.033 93.9283C289.376 92.8416 290.388 91.3182 291.07 89.358C291.773 87.3977 292.124 85.0966 292.124 82.4545C292.124 79.8125 291.773 77.522 291.07 75.5831C290.388 73.6442 289.376 72.142 288.033 71.0767C286.712 70.0114 285.082 69.4787 283.143 69.4787C281.226 69.4787 279.596 70.0007 278.254 71.0447C276.911 72.0888 275.878 73.5803 275.153 75.5192C274.45 77.4581 274.099 79.7699 274.099 82.4545Z" fill="#3B2C65"/>
<path d="M316.73 107V97.9872L348.531 54.3935H316.762V41.5455H368.538V50.5582L336.737 94.152H368.506V107H316.73ZM401.129 107.927C395.973 107.927 391.541 106.872 387.834 104.763C384.148 102.632 381.303 99.6705 379.3 95.8778C377.319 92.0639 376.328 87.6428 376.328 82.6143C376.328 77.5646 377.319 73.1435 379.3 69.3509C381.303 65.5369 384.148 62.5753 387.834 60.4659C391.541 58.3352 395.973 57.2699 401.129 57.2699C406.285 57.2699 410.706 58.3352 414.393 60.4659C418.1 62.5753 420.944 65.5369 422.926 69.3509C424.929 73.1435 425.93 77.5646 425.93 82.6143C425.93 87.6428 424.929 92.0639 422.926 95.8778C420.944 99.6705 418.1 102.632 414.393 104.763C410.706 106.872 406.285 107.927 401.129 107.927ZM401.225 96.1335C403.1 96.1335 404.687 95.5582 405.987 94.4077C407.287 93.2571 408.278 91.6591 408.959 89.6136C409.662 87.5682 410.014 85.2031 410.014 82.5185C410.014 79.7912 409.662 77.4048 408.959 75.3594C408.278 73.3139 407.287 71.7159 405.987 70.5653C404.687 69.4148 403.1 68.8395 401.225 68.8395C399.286 68.8395 397.645 69.4148 396.303 70.5653C394.982 71.7159 393.97 73.3139 393.267 75.3594C392.585 77.4048 392.244 79.7912 392.244 82.5185C392.244 85.2031 392.585 87.5682 393.267 89.6136C393.97 91.6591 394.982 93.2571 396.303 94.4077C397.645 95.5582 399.286 96.1335 401.225 96.1335ZM433.936 125.409V57.9091H449.405V66.3146H449.884C450.524 64.8232 451.429 63.3849 452.601 62C453.794 60.6151 455.307 59.4858 457.139 58.6122C458.993 57.7173 461.209 57.2699 463.787 57.2699C467.196 57.2699 470.382 58.1648 473.343 59.9545C476.326 61.7443 478.734 64.5035 480.566 68.2322C482.399 71.9609 483.315 76.7124 483.315 82.4865C483.315 88.0476 482.431 92.7031 480.662 96.4531C478.915 100.203 476.55 103.016 473.567 104.891C470.605 106.766 467.313 107.703 463.691 107.703C461.22 107.703 459.078 107.298 457.267 106.489C455.456 105.679 453.933 104.614 452.697 103.293C451.482 101.972 450.545 100.555 449.884 99.0419H449.565V125.409H433.936ZM449.245 82.4545C449.245 85.0966 449.597 87.3977 450.3 89.358C451.024 91.3182 452.058 92.8416 453.4 93.9283C454.764 94.9936 456.394 95.5263 458.29 95.5263C460.208 95.5263 461.838 94.9936 463.18 93.9283C464.522 92.8416 465.534 91.3182 466.216 89.358C466.919 87.3977 467.271 85.0966 467.271 82.4545C467.271 79.8125 466.919 77.522 466.216 75.5831C465.534 73.6442 464.522 72.142 463.18 71.0767C461.859 70.0114 460.229 69.4787 458.29 69.4787C456.372 69.4787 454.742 70.0007 453.4 71.0447C452.058 72.0888 451.024 73.5803 450.3 75.5192C449.597 77.4581 449.245 79.7699 449.245 82.4545Z" fill="#4D51BD"/>
</svg>
